<?xml version="1.0" encoding="UTF-8"?>
<svg version="1.1" xmlns="http://www.w3.org/2000/svg" width="1749" height="1749">
<path d="M0 0 C577.17 0 1154.34 0 1749 0 C1749 577.17 1749 1154.34 1749 1749 C1171.83 1749 594.66 1749 0 1749 C0 1171.83 0 594.66 0 0 Z " fill="#171717" transform="translate(0,0)"/>
<path d="M0 0 C0.57105469 0.34933594 1.14210938 0.69867187 1.73046875 1.05859375 C14.33335927 8.93179538 23.45326599 17.79037998 32 30 C32.33 16.8 32.66 3.6 33 -10 C63.03 -10 93.06 -10 124 -10 C124 88.01 124 186.02 124 287 C94.3 287 64.6 287 34 287 C34 273.47 34 259.94 34 246 C33.34 246 32.68 246 32 246 C31.77054688 246.70769531 31.54109375 247.41539062 31.3046875 248.14453125 C23.72177088 264.7406751 2.20209611 278.32096283 -14.39941406 284.60571289 C-38.273696 293.09644228 -64.29231828 294.74286656 -89 289 C-89.98395752 288.77449463 -89.98395752 288.77449463 -90.98779297 288.54443359 C-108.7213915 284.25899937 -125.24116253 274.82912675 -139 263 C-139.88816406 262.26136719 -140.77632812 261.52273438 -141.69140625 260.76171875 C-165.27160927 240.49354424 -178.09660502 211.63637422 -185.3125 182.0625 C-185.56725098 181.02037354 -185.82200195 179.97824707 -186.08447266 178.90454102 C-186.32085449 177.89576904 -186.55723633 176.88699707 -186.80078125 175.84765625 C-187.00872314 174.96086182 -187.21666504 174.07406738 -187.4309082 173.16040039 C-188.84266971 165.32030916 -189.17355363 157.46701795 -189.23828125 149.515625 C-189.246353 148.53873718 -189.25442474 147.56184937 -189.26274109 146.55535889 C-189.27648834 144.49476849 -189.28725173 142.43415621 -189.29516602 140.37353516 C-189.30660317 138.31259246 -189.3269211 136.2516774 -189.35668945 134.19091797 C-189.9285829 94.42675121 -177.99491246 58.97554333 -153 28 C-152.40445313 27.24847656 -151.80890625 26.49695313 -151.1953125 25.72265625 C-137.00565819 8.57965283 -115.24144443 -3.89648396 -94 -10 C-92.86820313 -10.3403125 -91.73640625 -10.680625 -90.5703125 -11.03125 C-61.34824577 -18.9602134 -25.95586888 -15.99537743 0 0 Z " fill="#FEFEFE" transform="translate(686,774)"/>
<path d="M0 0 C30.03 0 60.06 0 91 0 C91.33 44.88 91.66 89.76 92 136 C94.64 132.7 97.28 129.4 100 126 C112.0785054 113.17849506 128.45017693 104.42900537 144.9375 98.75 C145.64036133 98.50354736 146.34322266 98.25709473 147.06738281 98.00317383 C158.49170687 94.24571936 170.05686506 93.67687877 182 93.75 C183.26328125 93.74226562 184.5265625 93.73453125 185.828125 93.7265625 C213.14645241 93.78277305 240.358768 102.64503966 260.0390625 122.0078125 C261.02746702 123.00379584 262.0145391 124.00110405 263 125 C263.81210938 125.80179688 264.62421875 126.60359375 265.4609375 127.4296875 C279.27535838 141.82576821 287.04987669 159.92039849 292 179 C292.30550781 180.07121094 292.30550781 180.07121094 292.6171875 181.1640625 C296.18036711 194.04632724 296.28269234 207.06296578 296.22705078 220.30615234 C296.22648543 222.20967096 296.22680564 224.11319001 296.22793579 226.01670837 C296.22850547 231.14178795 296.21681393 236.26677235 296.20278788 241.39182997 C296.19021592 246.76362585 296.18910495 252.13542434 296.18673706 257.50723267 C296.18054119 267.66054511 296.16415618 277.81381405 296.14403808 287.96710742 C296.11742137 301.70065764 296.10669113 315.43421991 296.09503365 329.16778946 C296.07627408 350.77855883 296.03641582 372.38923646 296 394 C266.3 394 236.6 394 206 394 C205.95101563 381.78355469 205.90203125 369.56710937 205.8515625 356.98046875 C205.81617396 349.23762316 205.78029271 341.49478503 205.7421875 333.75195312 C205.68180714 321.46429144 205.62342885 309.17664377 205.578125 296.88891602 C205.5451185 287.93910405 205.50523976 278.98935318 205.45720994 270.03960878 C205.43203085 265.30358653 205.41022447 260.56760436 205.39665604 255.83153343 C205.38375739 251.36722788 205.36162004 246.90306039 205.33261681 242.43883133 C205.32360169 240.80672137 205.3178651 239.17458921 205.31578636 237.54245567 C205.28729602 218.55870161 202.25587111 200.26198249 188.90234375 185.71484375 C176.45110555 173.96632093 160.97356285 170.54560981 144.3359375 170.78125 C133.0019303 171.17737083 122.09113927 175.28046228 113 182 C112.44699219 182.39574219 111.89398437 182.79148437 111.32421875 183.19921875 C99.92184143 192.0227879 94.66029773 206.62028322 92.42944717 220.4068985 C91.60890731 227.27219696 91.68996622 234.15567205 91.68115234 241.05957031 C91.67183533 242.74605276 91.66166408 244.43253068 91.65071106 246.1190033 C91.62359669 250.66152668 91.60831722 255.20401939 91.59528303 259.74660206 C91.57957056 264.50718993 91.55280655 269.26771589 91.5272522 274.02825928 C91.48060731 283.02703349 91.44379437 292.02581953 91.41057932 301.02465224 C91.36507992 313.19607716 91.30425961 325.36742511 91.24433136 337.53878593 C91.15042516 356.69248523 91.07687412 375.84620723 91 395 C60.97 395 30.94 395 0 395 C0 264.65 0 134.3 0 0 Z " fill="#FEFEFE" transform="translate(1128,667)"/>
<path d="M0 0 C2.42393514 0.01834091 4.84748669 0.02050813 7.27148438 0.02026367 C40.16924611 0.09160811 71.86066758 7.5234183 96.79492188 30.20581055 C97.83326172 31.12233398 97.83326172 31.12233398 98.89257812 32.05737305 C116.34498747 48.36479331 126.54444318 71.88608838 129.79492188 95.20581055 C129.79492188 97.18581055 129.79492188 99.16581055 129.79492188 101.20581055 C102.07492187 101.20581055 74.35492187 101.20581055 45.79492188 101.20581055 C44.47492188 96.91581055 43.15492188 92.62581055 41.79492188 88.20581055 C35.13823905 77.89447832 26.57936835 72.42513699 14.79492188 69.20581055 C10.63101107 68.6576459 6.55322719 68.58452237 2.35742188 68.64331055 C1.25938232 68.65354248 0.16134277 68.66377441 -0.9699707 68.67431641 C-9.91124409 68.90910548 -17.29310422 69.82149009 -24.20507812 75.9909668 C-29.08997303 81.31685916 -29.57802866 86.03842614 -29.46679688 93.1315918 C-29.08499526 97.61633614 -28.17243964 100.77600308 -25.20507812 104.20581055 C-14.60172695 112.77396956 -0.32187442 115.90295282 12.67498779 118.97146606 C28.58966178 122.74312382 44.2743337 127.02542539 59.79492188 132.20581055 C60.78186035 132.53436035 61.76879883 132.86291016 62.78564453 133.20141602 C88.84476406 141.9907388 111.67792112 154.25640556 125.06835938 179.5456543 C133.87498493 197.36404349 134.42576614 221.33649201 128.79492188 240.20581055 C125.30072088 250.28636111 120.5490492 258.9070803 113.79492188 267.20581055 C113.35019531 267.81295898 112.90546875 268.42010742 112.44726562 269.0456543 C96.05168863 290.35489045 67.05274793 299.44857773 41.79492188 304.20581055 C40.96605469 304.38370117 40.1371875 304.5615918 39.28320312 304.74487305 C-1.50530708 312.30067242 -45.43763217 303.51125828 -80.20507812 281.20581055 C-104.23816888 264.20067322 -118.15261741 241.41565343 -125.20507812 213.20581055 C-125.20507812 210.23581055 -125.20507812 207.26581055 -125.20507812 204.20581055 C-95.50507812 204.20581055 -65.80507813 204.20581055 -35.20507812 204.20581055 C-34.21507812 207.50581055 -33.22507812 210.80581055 -32.20507812 214.20581055 C-28.26735413 223.52004231 -21.47519991 229.27160314 -12.40039062 233.51831055 C2.3868409 239.21537425 16.92611695 240.24380408 31.79492188 234.20581055 C37.37698593 231.54810808 40.78201416 228.74956074 43.79492188 223.20581055 C45.80631134 217.17164215 45.8724869 210.44076022 43.10742188 204.70581055 C29.32481189 189.80569165 3.3570093 185.61867007 -15.76757812 181.33081055 C-45.73023303 174.57860133 -75.234835 166.74742088 -97.20507812 144.20581055 C-97.98753906 143.43237305 -98.77 142.65893555 -99.57617188 141.86206055 C-112.83709933 128.02457103 -116.61972387 108.89844974 -116.50512695 90.3112793 C-115.86788226 66.32089089 -105.56162084 45.68220404 -88.20507812 29.20581055 C-63.97745216 7.91279843 -31.56905157 -0.24643319 0 0 Z " fill="#FEFEFE" transform="translate(963.205078125,759.794189453125)"/>
<path d="M0 0 C30.36 0 60.72 0 92 0 C92 24.09 92 48.18 92 73 C111.47 73 130.94 73 151 73 C151 98.08 151 123.16 151 149 C131.2 149 111.4 149 91 149 C91.09664873 171.86485119 91.09664873 171.86485119 91.22207737 194.72949409 C91.27188121 202.90867585 91.31735107 211.08780534 91.34643555 219.26708984 C91.36948239 225.74449247 91.40295437 232.2217451 91.44870156 238.69902861 C91.4725442 242.12550967 91.49133137 245.55184301 91.49761391 248.978405 C91.50727158 252.81313739 91.53535277 256.64733387 91.56762695 260.48193359 C91.56619186 261.60547241 91.56475677 262.72901123 91.5632782 263.88659668 C91.65718065 271.80359155 92.74730399 278.85503934 96.5625 285.875 C103.06119571 291.54052959 111.0526468 292.5986649 119.3828125 292.609375 C120.21804443 292.62500488 121.05327637 292.64063477 121.91381836 292.65673828 C124.98393035 292.70867469 128.05453127 292.7274889 131.125 292.75 C138.01375 292.8325 144.9025 292.915 152 293 C152 318.74 152 344.48 152 371 C142.38875 371.0825 132.7775 371.165 122.875 371.25 C119.89065918 371.28641602 116.90631836 371.32283203 113.83154297 371.36035156 C98.48143551 371.4687057 83.96431156 370.63585512 69 367 C68.19723129 366.80539185 67.39446259 366.61078369 66.56736755 366.41027832 C45.45889332 361.19055692 26.45235641 350.05931983 14.85302734 331.09008789 C3.47101987 311.64560258 -0.36268284 289.44467561 -0.22705078 267.17993164 C-0.22734283 265.89026993 -0.22763489 264.60060822 -0.22793579 263.27186584 C-0.22850153 259.78933583 -0.21687591 256.30694813 -0.20278788 252.82445073 C-0.19014827 249.16499284 -0.18909973 245.50553044 -0.18673706 241.84605408 C-0.18056067 234.94040908 -0.16420279 228.03482863 -0.14403808 221.12921184 C-0.12155832 213.25719702 -0.11065551 205.38517886 -0.10064721 197.51313984 C-0.0798324 181.34204966 -0.04320522 165.17104822 0 149 C-11.88 149 -23.76 149 -36 149 C-36 123.92 -36 98.84 -36 73 C-24.12 73 -12.24 73 0 73 C0 48.91 0 24.82 0 0 Z " fill="#FDFDFD" transform="translate(335,691)"/>
<path d="M0 0 C0.97324219 0.31710937 1.94648437 0.63421875 2.94921875 0.9609375 C19.99917856 7.24602073 31.9027051 20.32932189 39.5625 36.5 C48.2926247 57.7559558 47.78791781 84.65318981 39.1875 105.875 C38.49146709 107.26706581 37.76014235 108.641879 37 110 C36.53078125 110.8559375 36.0615625 111.711875 35.578125 112.59375 C27.00440497 127.12824682 14.24639329 137.60039236 -1.9375 142.52734375 C-16.75027003 145.92193688 -33.2879114 145.9016904 -47 139 C-47.89589844 138.55398438 -48.79179688 138.10796875 -49.71484375 137.6484375 C-65.58846544 128.89226406 -77.11885463 113.69134672 -82.375 96.4296875 C-87.74043067 75.57157576 -87.18151159 50.31735443 -77 31 C-74.86362848 27.49389746 -72.52595721 24.23432347 -70 21 C-69.48953125 20.31292969 -68.9790625 19.62585938 -68.453125 18.91796875 C-59.45436937 7.62497592 -44.98540647 -0.35030985 -30.8203125 -2.71875 C-20.19920837 -3.77791828 -10.19104048 -3.42954304 0 0 Z " fill="#171717" transform="translate(674,842)"/>
<path d="M0 0 C7.11449349 5.46879215 12.14093263 11.69241445 16.1953125 19.6875 C16.53691406 20.34878906 16.87851563 21.01007812 17.23046875 21.69140625 C21.76949547 32.47951161 20.30773354 48.0481683 16.1953125 58.6875 C10.65831733 70.66657609 1.02326672 79.4828448 -11.05078125 84.6484375 C-27.74321544 90.658904 -45.72639723 90.49582663 -61.9296875 83.125 C-74.46698429 76.40859101 -82.52304646 66.73067943 -87.1796875 53.4375 C-90.95013898 40.01216857 -89.29729681 26.60811011 -82.6171875 14.4375 C-74.73091652 1.79966826 -62.94124835 -6.07039587 -48.58203125 -9.90625 C-31.3134543 -12.43217405 -14.42465131 -10.05202182 0 0 Z " fill="#FDFDFD" transform="translate(1541.8046875,977.3125)"/>
<path d="M0 0 C0.33 0.66 0.66 1.32 1 2 C-1.85276137 4.93200474 -4.65079784 7.64315404 -8 10 C-8.66 9.67 -9.32 9.34 -10 9 C-6.7 6.03 -3.4 3.06 0 0 Z " fill="#2A2A2A" transform="translate(708,1033)"/>
<path d="M0 0 C0.33 0 0.66 0 1 0 C0.67 2.31 0.34 4.62 0 7 C-1.32 6.34 -2.64 5.68 -4 5 C-2.69254251 3.31295807 -1.35827971 1.64639965 0 0 Z " fill="#1F1F1F" transform="translate(718,1021)"/>
<path d="M0 0 C-2.9826906 1.52448631 -5.818202 2.93940067 -9 4 C-8.67 2.68 -8.34 1.36 -8 0 C-4.94736336 -0.98120464 -3.05263664 -0.98120464 0 0 Z " fill="#363636" transform="translate(1266,839)"/>
</svg>
